<?xml version="1.0" encoding="UTF-8" standalone="no"?>
<!-- Created with Inkscape (http://www.inkscape.org/) -->

<svg
  width="400mm"
  height="400mm"
  viewBox="0 0 400 400"
  version="1.1"
  id="svg5"
  xml:space="preserve"
  inkscape:version="1.2.1 (9c6d41e410, 2022-07-14)"
  sodipodi:docname="logo.svg"
  xmlns:inkscape="http://www.inkscape.org/namespaces/inkscape"
  xmlns:sodipodi="http://sodipodi.sourceforge.net/DTD/sodipodi-0.dtd"
  xmlns:xlink="http://www.w3.org/1999/xlink"
  xmlns="http://www.w3.org/2000/svg"
  xmlns:svg="http://www.w3.org/2000/svg"
>
  <sodipodi:namedview
    id="namedview7"
    pagecolor="#505050"
    bordercolor="#eeeeee"
    borderopacity="1"
    inkscape:showpageshadow="0"
    inkscape:pageopacity="0"
    inkscape:pagecheckerboard="0"
    inkscape:deskcolor="#505050"
    inkscape:document-units="mm"
    showgrid="false"
    inkscape:zoom="0.64693624"
    inkscape:cx="230.31636"
    inkscape:cy="837.79509"
    inkscape:window-width="2560"
    inkscape:window-height="1410"
    inkscape:window-x="0"
    inkscape:window-y="0"
    inkscape:window-maximized="1"
    inkscape:current-layer="layer5"
  ><inkscape:page
      x="0"
      y="0"
      width="400"
      height="400"
      id="page1150"
      inkscape:export-filename="logo.png"
      inkscape:export-xdpi="96.012001"
      inkscape:export-ydpi="96.012001"
    /><inkscape:page
      x="410"
      y="0"
      width="677.33331"
      height="381"
      id="page1152"
    /></sodipodi:namedview><defs
    id="defs2"
  ><clipPath
      clipPathUnits="userSpaceOnUse"
      id="clipPath1138"
    ><path
        d="M 0,1080 H 1920 V 0 H 0 Z"
        id="path1136"
      /></clipPath></defs><g
    inkscape:groupmode="layer"
    id="layer4"
    inkscape:label="background"
    transform="translate(25.35452,-8.603601)"
    style="display: inline; fill: #ffffff; fill-opacity: 1"
  ><g
      style="display: inline; fill: #ffffff; fill-opacity: 1"
      transform="matrix(0.06991699,0,0,0.06991699,-6.0001896,97.778504)"
      inkscape:label="(pdf) background"
      id="layer1-3"
    ><rect
        y="-2102.4253"
        x="-1045.6049"
        height="7145.4614"
        width="7947.0356"
        id="rect995"
        style="opacity: 1; fill: #ffffff; fill-opacity: 1; stroke-width: 10.3605"
      /></g></g><g
    inkscape:groupmode="layer"
    id="layer2"
    inkscape:label="mountain"
    transform="matrix(0.48665485,0,0,0.48665485,-127.8893,117.9094)"
    style="display: inline; fill: #636363; fill-opacity: 1"
  ><g
      id="g1116"
      transform="matrix(0.35277777,0,0,-0.35277777,434.48584,265.90487)"
      style="fill: #636363; fill-opacity: 1"
    ><path
        d="m 0,0 532.394,468.507 112.564,-80.62 234.253,161.239 219.042,-261.633 174.93,-86.705 171.887,120.17 334.648,-415.269 -223.605,229.691 41.07,-100.395 -156.677,223.606 -91.267,-130.817 12.17,85.972 -217.522,-143.774 112.564,117.127 -86.704,40.309 42.59,-43.352 -82.14,43.352 -57.803,37.268 -196.225,255.549 -56.282,-65.409 41.071,13.691 -66.93,-73.014 13.69,-161.24 -45.634,146.028 -95.831,-83.662 -74.535,-69.211 -28.901,-88.986 -1.522,101.915 120.169,123.212 -123.211,-66.93 56.282,63.888 -83.662,86.704 -115.605,-155.155 97.352,57.803 -161.24,-203.832 21.296,67.719 -153.634,-140.732 59.324,92.789 z"
        style="fill: #636363; fill-opacity: 1; fill-rule: nonzero; stroke: none"
        id="path1118"
      /></g><g
      id="g1120"
      transform="matrix(0.35277777,0,0,-0.35277777,695.81959,151.06848)"
      style="fill: #636363; fill-opacity: 1"
    ><path
        d="m 0,0 -106.479,-89.746 -19.774,-66.93 z"
        style="fill: #636363; fill-opacity: 1; fill-rule: nonzero; stroke: none"
        id="path1122"
      /></g><g
      id="g1124"
      transform="matrix(0.35277777,0,0,-0.35277777,748.66667,113.50506)"
      style="fill: #636363; fill-opacity: 1"
    ><path
        d="m 0,0 85.972,-167.324 -48.676,-50.929 h 76.057 l -63.888,-104.226 124.732,89.747 z"
        style="fill: #636363; fill-opacity: 1; fill-rule: nonzero; stroke: none"
        id="path1126"
      /></g><g
      id="g1128"
      transform="matrix(0.35277777,0,0,-0.35277777,944.8111,185.68032)"
      style="fill: #636363; fill-opacity: 1"
    ><path
        d="m 0,0 v -58.563 l 91.268,-92.79 z"
        style="fill: #636363; fill-opacity: 1; fill-rule: nonzero; stroke: none"
        id="path1130"
      /></g><g
      id="g1132"
      transform="matrix(0.35277777,0,0,-0.35277777,410,381)"
      style="fill: #636363; fill-opacity: 1"
    ><g
        id="g1134"
        clip-path="url(#clipPath1138)"
        style="fill: #636363; fill-opacity: 1"
      ><g
          id="g1140"
          transform="translate(148.5068,330.8174)"
          style="fill: #636363; fill-opacity: 1"
        ><path
            d="m 0,0 c 0,0 92.789,-118.648 313.353,-106.479 0,0 208.394,3.041 406.14,73.014 0,0 375.719,92.788 538.479,42.591 0,0 290.535,-68.681 363.549,-116.481 0,0 -153.633,93.665 -222.084,101.27 l 6.591,17.746 -13.182,2.028 8.112,10.331 -1.014,4.374 -9.633,2.535 5.07,11.662 -5.07,6.085 -6.085,22.816 -7.606,-24.338 -3.55,-3.549 4.057,-11.155 -9.634,-4.056 5.07,-12.169 -10.14,-6.591 -23.831,3.042 5.07,16.732 -2.028,6.592 h -12.169 l 7.098,16.731 -1.013,5.579 -14.197,-0.507 9.633,16.732 -6.085,4.563 -7.098,27.887 c 0,0 -6.084,-26.366 -8.619,-28.901 -2.536,-2.535 -6.592,-3.549 -6.592,-3.549 l 5.07,-16.732 h -8.62 l -3.549,-4.564 7.606,-15.212 -14.198,-2.027 -0.506,-11.662 c 0,0 -176.451,29.408 -236.79,20.281 0,0 -192.168,-6.592 -278.873,-33.972 L 675.38,-12.17 673.353,3.549 658.648,3.042 l 9.634,15.211 -6.592,6.592 -8.112,0.507 8.112,12.675 -7.606,8.62 0.508,8.621 -6.085,7.605 0.507,13.183 -6.591,0.507 0.507,-13.69 c 0,0 -7.099,-8.113 -1.521,-17.747 l -8.113,-0.507 6.592,-19.774 -15.212,-1.522 10.648,-19.267 -15.718,-1.521 c 0,0 -5.07,-6.085 6.084,-19.267 v -2.537 l -14.704,1.522 c 0,0 -4.563,-16.732 -12.423,-14.197 v 11.155 l -10.394,0.507 5.578,15.719 -8.113,4.378 4.056,10.832 -4.563,3.549 L 576,39.042 570.93,12.676 c 0,0 -11.155,3.687 -0.507,-12.861 l -11.155,-3.872 8.62,-15.718 -14.705,-1.521 9.127,-17.24 -11.155,1.521 -8.113,-11.662 -56.281,-12.169 c 0,0 20.788,31.944 -0.507,30.423 h -14.197 c 0,0 28.394,30.054 0,30.238 h -9.127 c 0,0 19.267,32.635 1.014,28.579 l -5.07,-1.014 c 0,0 7.605,16.225 -1.015,19.267 l -5.07,24.338 -4.057,0.507 -4.563,-22.309 c 0,0 -13.69,-5.578 0,-16.733 l -0.507,-8.112 -11.155,4.563 -2.028,-10.648 10.648,-18.438 h -20.282 v -17.562 l 12.169,-14.197 -11.661,-3.042 c 0,0 -7.099,-21.296 -1.015,-29.916 l -5.07,0.507 c 0,0 3.549,34.479 -16.226,36 l 6.085,14.705 -6.085,5.07 -6.591,28.901 -3.549,0.507 -5.071,-30.423 c 0,0 -15.211,0.508 0,-14.704 l 1.522,-5.577 c 0,0 -26.367,7.605 -4.564,-19.774 0,0 -26.366,-7.099 -6.084,-22.31 0,0 -78.592,-10.648 -95.831,-6.592 0,0 18.76,26.873 -5.578,19.775 0,0 11.155,24.844 -4.056,22.817 0,0 3.549,20.788 -3.55,18.253 l -7.606,30.93 -6.084,-30.93 -5.577,0.507 c 0,0 0.507,-16.733 4.563,-18.253 0,0 -25.352,7.605 -4.563,-19.268 0,0 -27.381,5.577 -5.07,-25.352 l -1.522,-2.535 -11.155,9.633 -13.69,1.522 c 0,0 21.296,25.858 -3.549,25.351 l -4.057,-1.52 c 0,0 23.325,31.943 -2.535,25.858 l -5.577,-0.507 c 0,0 17.746,22.449 1.014,22.126 0,0 4.563,14.889 -3.55,15.396 l -3.042,18.253 -6.591,-18.253 c 0,0 -6.592,-6.453 0,-15.396 0,0 -20.789,-2.858 -1.015,-20.604 0,0 -36,0.507 -6.084,-26.366 0,0 -39.042,8.112 -8.62,-25.353 0,0 -168.844,45.127 -171.38,72.508"
            style="fill: #636363; fill-opacity: 1; fill-rule: nonzero; stroke: none"
            id="path1142"
          /></g><g
          id="g1144"
          transform="translate(854.3101,203.5488)"
          style="fill: #636363; fill-opacity: 1"
        ><path
            d="m 0,0 c 0,0 248.451,88.226 354.929,78.085 0,0 130.818,-12.169 144,-22.31 0,0 -175.436,22.31 -242.366,-40.563 0,0 117.634,56.586 273.803,24.236 0,0 110.535,-11.053 0,28.496 L 427.944,87.212 c 0,0 112.563,4.057 161.239,-7.099 l 248.45,-51.718 c 0,0 -141.971,63.887 -204.844,66.929 0,0 -195.719,35.493 -362.029,0 C 270.76,95.324 9.126,33.465 0,0"
            style="fill: #636363; fill-opacity: 1; fill-rule: nonzero; stroke: none"
            id="path1146"
          /></g></g></g></g><g
    inkscape:groupmode="layer"
    id="layer5"
    inkscape:label="cuts"
    transform="translate(-3.0429838e-6)"
    style="display: inline; opacity: 1; fill: #5277c3; fill-opacity: 1; stroke-width: 11.0512"
  ><path
      style="fill: #ffffff; stroke-width: 2.92396"
      d="M 112.49062,202.53015 142.55564,260.19968 90.566959,277.93897 73.11341,240.11409 Z"
      id="path378"
    /><path
      style="fill: #ffffff; stroke-width: 2.92396"
      d="m 207.33356,265.74604 c 3.74032,-0.80338 42.68079,-14.64023 44.78055,-14.9976 2.09976,-0.35737 62.25772,-3.92262 62.25772,-3.92262 l 79.06467,3.61099 2.54384,18.62824 -21.42813,23.08752 c 0,0 -100.53484,-0.50975 -104.74455,-0.9684 -4.20968,-0.45866 -69.20463,-10.95293 -68.10494,-13.36813 1.09968,-2.41517 5.63084,-12.07 5.63084,-12.07 z"
      id="path380"
    /></g><g
    inkscape:label="Nix logo"
    inkscape:groupmode="layer"
    id="layer1"
    style="display: inline"
  ><g
      id="nix_logo"
      transform="matrix(0.77266535,0,0,0.77266535,4.9406822,32.523115)"
    ><g
        transform="translate(-154.74908,536.81351)"
        style="display: inline; opacity: 1; fill: #5277c3; fill-opacity: 1"
        inkscape:label="gradient-logo"
        id="layer3"
      ><g
          style="display: inline; fill: #5277c3; fill-opacity: 1; stroke-width: 11.0512"
          transform="matrix(0.09048806,0,0,0.09048806,142.32381,-453.10644)"
          id="g955"
        ><g
            transform="matrix(11.047619,0,0,11.047619,-1572.2888,9377.7107)"
            id="g869"
            style="fill: #5277c3; fill-opacity: 1"
          ><path
              style="display: inline; opacity: 1; fill: #ffffff; fill-opacity: 1; stroke-width: 3.78548"
              d="m 547.99831,-709.8555 -37.95095,70.33389 158.6801,4.8039 -0.18096,-89.43433 z"
              id="path1420"
              transform="translate(-4.2539062e-7)"
            /><g
              transform="rotate(-60,226.35754,-449.37199)"
              id="g932"
              style="fill: #5277c3; fill-opacity: 1; stroke-width: 11.0512"
            ><path
                sodipodi:nodetypes="cccccccccc"
                inkscape:connector-curvature="0"
                id="path3336-6"
                d="m 449.71876,-420.51322 122.19683,211.67512 -56.15706,0.5268 -32.6236,-56.8692 -32.85645,56.5653 -27.90237,-0.011 -14.29086,-24.6896 46.81047,-80.4901 -33.22946,-57.8257 z"
                style="display: inline; opacity: 1; fill: #5277c3; fill-opacity: 1; fill-rule: evenodd; stroke: none; stroke-width: 33.1535; stroke-linecap: butt; stroke-linejoin: round; stroke-miterlimit: 4; stroke-dasharray: none; stroke-opacity: 1"
              /></g><path
              sodipodi:nodetypes="cccccccccc"
              inkscape:connector-curvature="0"
              id="path4260-0"
              d="m 309.54892,-710.38827 122.19683,211.67512 -56.15706,0.5268 -32.6236,-56.8692 -32.85645,56.5653 -27.90237,-0.011 -14.29086,-24.6896 46.81047,-80.4901 -33.22946,-57.8256 z"
              style="color: #000000; clip-rule: nonzero; display: inline; overflow: visible; visibility: visible; opacity: 1; isolation: auto; mix-blend-mode: normal; color-interpolation: sRGB; color-interpolation-filters: linearRGB; solid-color: #000000; solid-opacity: 1; fill: #5277c3; fill-opacity: 1; fill-rule: evenodd; stroke: none; stroke-width: 33.1535; stroke-linecap: butt; stroke-linejoin: round; stroke-miterlimit: 4; stroke-dasharray: none; stroke-dashoffset: 0; stroke-opacity: 1; color-rendering: auto; image-rendering: auto; shape-rendering: auto; text-rendering: auto; enable-background: accumulate"
            /><use
              x="0"
              y="0"
              xlink:href="#path3336-6"
              inkscape:transform-center-x="124.43045"
              inkscape:transform-center-y="151.59082"
              id="use3439-6"
              transform="rotate(60,728.23563,-692.24036)"
              width="100%"
              height="100%"
              style="fill: #5277c3; fill-opacity: 1; stroke-width: 11.0512"
            /><use
              x="0"
              y="0"
              xlink:href="#path3336-6"
              inkscape:transform-center-x="59.669705"
              inkscape:transform-center-y="-139.94592"
              id="use3449-5"
              transform="rotate(180,477.5036,-570.81898)"
              width="100%"
              height="100%"
              style="fill: #5277c3; fill-opacity: 1; stroke-width: 11.0512"
            /><use
              style="display: inline; fill: #5277c3; fill-opacity: 1; stroke-width: 11.0512"
              x="0"
              y="0"
              xlink:href="#path4260-0"
              id="use4354-5"
              transform="rotate(120,407.33916,-716.08356)"
              width="100%"
              height="100%"
            /><use
              style="display: inline; fill: #5277c3; fill-opacity: 1; stroke-width: 11.0512"
              x="0"
              y="0"
              xlink:href="#path4260-0"
              id="use4362-2"
              transform="rotate(-120,407.28823,-715.86995)"
              width="100%"
              height="100%"
            /></g></g></g></g></g>
</svg>
